<svg height="512pt" viewBox="0 -16 512 512" width="512pt" xmlns="http://www.w3.org/2000/svg"><path d="m482 272.578125v-17.578125c0-55.070312-19.664062-107.113281-55.652344-148.136719l10.886719-10.886719c5.859375-5.855468 5.859375-15.355468 0-21.210937-48.210937-48.214844-112.574219-74.765625-181.234375-74.765625s-133.023438 26.550781-181.234375 74.765625c-5.859375 5.855469-5.859375 15.355469 0 21.210937l10.886719 10.886719c-35.988282 41.023438-55.652344 93.066407-55.652344 148.136719v17.578125c-17.460938 6.195313-30 22.867187-30 42.421875v90c0 24.8125 20.1875 45 45 45h60c8.285156 0 15-6.714844 15-15v-150c0-8.285156-6.714844-15-15-15h-45v-15c0-47.734375 17.046875-92.84375 48.242188-128.394531 15.296874 7.992187 34.824218 6.949219 49-3.710938 28.605468-21.519531 62.753906-32.894531 98.757812-32.894531s70.152344 11.375 98.757812 32.894531c14.191407 10.671875 33.726563 11.679688 49 3.707031 31.195313 35.554688 48.242188 80.664063 48.242188 128.398438v15h-45c-8.285156 0-15 6.714844-15 15v150c0 8.285156 6.714844 15 15 15h60c24.8125 0 45-20.1875 45-45v-90c0-19.554688-12.539062-36.226562-30-42.421875zm-392 147.421875h-45c-8.269531 0-15-6.730469-15-15v-90c0-8.269531 6.730469-15 15-15h45zm282.792969-321.082031c-33.847657-25.460938-74.234375-38.917969-116.792969-38.917969s-82.945312 13.457031-116.792969 38.917969c-6.003906 4.515625-15.144531 3.933593-20.375-1.300781l-11.898437-11.898438c41.109375-36.035156 93.488281-55.71875 149.066406-55.71875s107.957031 19.683594 149.066406 55.71875l-11.898437 11.898438c-5.230469 5.234374-14.371094 5.816406-20.375 1.300781zm109.207031 306.082031c0 8.269531-6.730469 15-15 15h-45v-120h45c8.269531 0 15 6.730469 15 15zm0 0"/><path d="m361 405v-90c0-8.285156-6.714844-15-15-15s-15 6.714844-15 15v90c0 8.285156 6.714844 15 15 15s15-6.714844 15-15zm0 0"/><path d="m301 465v-210c0-8.285156-6.714844-15-15-15s-15 6.714844-15 15v210c0 8.285156 6.714844 15 15 15s15-6.714844 15-15zm0 0"/><path d="m241 465v-210c0-8.285156-6.714844-15-15-15s-15 6.714844-15 15v210c0 8.285156 6.714844 15 15 15s15-6.714844 15-15zm0 0"/><path d="m181 405v-90c0-8.285156-6.714844-15-15-15s-15 6.714844-15 15v90c0 8.285156 6.714844 15 15 15s15-6.714844 15-15zm0 0"/></svg>