<svg height="512pt" viewBox="0 -16 512 512" width="512pt" xmlns="http://www.w3.org/2000/svg"><path d="m482 272.761719v-17.761719c0-55.058594-19.847656-106.960938-55.8125-147.976562l11.046875-11.046876c5.859375-5.859374 5.859375-15.351562 0-21.210937-48.207031-48.207031-113.222656-74.765625-181.234375-74.765625s-133.027344 26.558594-181.234375 74.765625c-5.859375 5.859375-5.859375 15.351563 0 21.210937l11.050781 11.050782c-35.96875 41.011718-55.816406 92.914062-55.816406 147.972656v17.761719c-17.421875 6.214843-30 22.707031-30 42.238281v90c0 24.8125 20.1875 45 45 45h60c8.289062 0 15-6.710938 15-15v-150c0-8.289062-6.710938-15-15-15h-45v-15c0-47.867188 17.3125-92.980469 48.667969-128.574219 14.964843 7.785157 34.503906 7.070313 48.585937-3.539062 57.160156-43.039063 140.332032-43.039063 197.492188 0 7.996094 6.019531 18.488281 8.964843 27.953125 8.964843 7.164062 0 14.023437-2.273437 20.46875-5.609374 31.460937 35.625 48.832031 80.808593 48.832031 128.757812v15h-45c-8.289062 0-15 6.710938-15 15v150c0 8.289062 6.710938 15 15 15h60c24.8125 0 45-20.1875 45-45v-90c0-19.53125-12.578125-36.023438-30-42.238281zm0 0"/><path d="m346 300c-8.289062 0-15 6.710938-15 15v90c0 8.289062 6.710938 15 15 15s15-6.710938 15-15v-90c0-8.289062-6.710938-15-15-15zm0 0"/><path d="m301 465v-210c0-8.289062-6.710938-15-15-15s-15 6.710938-15 15v210c0 8.289062 6.710938 15 15 15s15-6.710938 15-15zm0 0"/><path d="m241 465v-210c0-8.289062-6.710938-15-15-15s-15 6.710938-15 15v210c0 8.289062 6.710938 15 15 15s15-6.710938 15-15zm0 0"/><path d="m181 405v-90c0-8.289062-6.710938-15-15-15s-15 6.710938-15 15v90c0 8.289062 6.710938 15 15 15s15-6.710938 15-15zm0 0"/></svg>